<svg xmlns="http://www.w3.org/2000/svg" viewBox="0 0 246.39 58.26"><title>sisho</title><g id="Layer_2" data-name="Layer 2"><g id="premium"><path d="M243.68,41.94a2.47,2.47,0,0,1,1.14.29,2.22,2.22,0,0,1,.86.86,2.32,2.32,0,0,1,.31,1.16,2.29,2.29,0,0,1-.31,1.16,2.17,2.17,0,0,1-.85.85,2.31,2.31,0,0,1-2.31,0,2.17,2.17,0,0,1-.85-.85,2.29,2.29,0,0,1-.31-1.16,2.32,2.32,0,0,1,.31-1.16,2.22,2.22,0,0,1,.86-.86A2.48,2.48,0,0,1,243.68,41.94Zm0,.45a1.89,1.89,0,0,0-.92.24,1.76,1.76,0,0,0-.69.69,1.83,1.83,0,0,0-.25.93,1.8,1.8,0,0,0,.25.93,1.74,1.74,0,0,0,.68.69,1.83,1.83,0,0,0,.93.25,1.79,1.79,0,0,0,.92-.25,1.7,1.7,0,0,0,.69-.69,1.8,1.8,0,0,0,.25-.93,1.83,1.83,0,0,0-.25-.93,1.76,1.76,0,0,0-.69-.69A1.91,1.91,0,0,0,243.68,42.39Zm-1.05,3.1V43h1.28a.92.92,0,0,1,.39.1.63.63,0,0,1,.23.23.74.74,0,0,1,.09.36.66.66,0,0,1-.17.45.79.79,0,0,1-.49.24.39.39,0,0,1,.17.09.86.86,0,0,1,.17.19,2.54,2.54,0,0,1,.18.3l.29.49h-.62l-.2-.4a1.75,1.75,0,0,0-.35-.5.53.53,0,0,0-.34-.11h-.13v1Zm.5-1.4h.2a2.76,2.76,0,0,0,.54,0A.31.31,0,0,0,244,44a.33.33,0,0,0,0-.38.31.31,0,0,0-.16-.11,2.61,2.61,0,0,0-.54,0h-.2Z"/><path d="M19.88,18.63a7.11,7.11,0,0,1-1.49,3.67,12.93,12.93,0,0,0-6-1.24c-2.22,0-3.25.69-3.24,1.85,0,.67.29,1.34,2,3L16.39,31c2.79,2.78,3.5,4.54,3.52,7.59,0,5.49-4.49,8.81-11.54,8.86-4.43,0-8.1-.79-8.12-2.87a9.38,9.38,0,0,1,1.21-4.52,14.11,14.11,0,0,0,6,1.3c2.62,0,3.51-1.06,3.5-2.4A4.64,4.64,0,0,0,9.44,35.4L3.38,29.29C1.07,27,0,24.62,0,22.61c0-4.45,2.77-7.34,10.11-7.39C19.09,15.16,19.87,17.1,19.88,18.63Z"/><path d="M27.76,1.08c2.83,0,3.67,1.13,3.7,4.42s-1.41,5.25-4.1,5.27c-2.29,0-3.75-1.07-3.78-4.91C23.56,3.06,24.85,1.1,27.76,1.08Zm4,44.1c0,1.22-.06,1.22-7.87,1.28L23.69,19c0-3,1.49-3,7.86-3Z"/><path d="M36.81,17a26.47,26.47,0,0,1,10.63-2.09,8.93,8.93,0,0,1,5.62,1.55,19.8,19.8,0,0,1,7.1-1.64c8.23-.06,9,2.62,9.08,10.79l.16,19.32c0,1.22.36,1.22-7.73,1.27L61.5,25.46c0-3.47-.39-4.69-2.32-4.68a3.38,3.38,0,0,0-2.28.94L57.09,45c0,1.22.36,1.22-7.73,1.27l-.17-20.72c0-3.17,0-4.82-2-4.8a4.26,4.26,0,0,0-2.62.93l.2,23.41c0,1.21.14,1.21-7.74,1.27Z"/><path d="M74.15,17.08a22.58,22.58,0,0,1,10.21-2.51c6.57-.05,11.16,2.66,11.24,12.66C95.73,43.56,90.65,47,86.71,47a7.42,7.42,0,0,1-4.58-1.25l.1,11.89a16.25,16.25,0,0,1-4.63.58c-2.76,0-3.11-.59-3.13-3Zm7.93,22.74a1.83,1.83,0,0,0,2,1.09c1.45,0,3-1.61,2.86-13.19,0-6.46-.89-7.25-3-7.24a3,3,0,0,0-1.93.93Z"/><path d="M108,44.63c0,1.22,0,1.22-7.73,1.28L99.9,4.09c0-3,1.43-3,7.72-3Z"/><path d="M133.33,24.52a33.7,33.7,0,0,1-.89,8.66,87.8,87.8,0,0,1-12,1c.25,4.94,1.08,5.85,3.78,5.83a19.64,19.64,0,0,0,8.15-1.77,25.57,25.57,0,0,1,.67,6c0,1-4.41,2.35-9.8,2.39-6.29,0-10.73-2.18-10.84-14.62-.12-15.23,5.53-17.65,12-17.7C129.93,14.3,133.27,17.45,133.33,24.52Zm-13,4.3a16.83,16.83,0,0,0,5.11-.59,11.17,11.17,0,0,0,.32-3.17c0-3.9-.66-4.81-2.39-4.8C121.26,20.27,120.53,23.21,120.37,28.82Z"/><path d="M157.3,17.24A7.35,7.35,0,0,1,155.74,21a13.37,13.37,0,0,0-6.05-1.31c-2.26,0-3.32.68-3.32,1.86,0,.68.28,1.36,2,3.1l5.19,5.23c2.82,2.86,3.52,4.66,3.51,7.76,0,5.59-4.66,8.93-11.84,8.92-4.51,0-8.24-.88-8.24-3a9.51,9.51,0,0,1,1.28-4.59,14.61,14.61,0,0,0,6.12,1.37c2.68,0,3.59-1.05,3.6-2.41a4.68,4.68,0,0,0-1.55-3.67L140.37,28c-2.32-2.36-3.37-4.78-3.37-6.83,0-4.53,2.91-7.45,10.37-7.43C156.52,13.7,157.3,15.69,157.3,17.24Z"/><path d="M161.19,3c0-3,1.42-3,7.9-3l0,15.89a10.8,10.8,0,0,1,6.69-2.16c5.42,0,6.47,1.69,6.46,12.24l0,18.44c0,1.24.42,1.24-8.17,1.23l0-18.44c0-5.46-.14-7.07-1.89-7.08a5.79,5.79,0,0,0-3.1.74L169,44.39c0,1.24,0,1.24-7.89,1.23Z"/><path d="M210.11,16c-.2-1.3.5-1.3,8.74-1.29l1.32,8.7c1.18,7.76,1.46,12.91,1.46,12.91s.42-2.29,1.21-7.14l2.06-12.47c.22-1.18.43-1.26,2.54-1.26H232l2.36,13.8c.77,4.28,1.05,7.11,1.05,7.11s.36-5.23,1.57-12.92l1.14-7.33c.22-1.37.22-1.37,8.32-1.36,0,0-6.61,31-7.11,31a28.31,28.31,0,0,1-5.14.3,3.92,3.92,0,0,1-4-3.11l-1-4.1A63.25,63.25,0,0,1,228,31.39a61.35,61.35,0,0,1-1,7.45l-1.5,6.88s-3.31.31-6.13.31c-1.9,0-2.81-1.38-3.23-3.05C214.23,35.59,210.11,16,210.11,16Z"/><path d="M197.72,13.77c-7.46,0-11.7,5.07-11.72,16.31,0,6.09.66,10.05,2.06,12.58l.36-.72.39-.79.18-.41a9,9,0,0,0,.54-1.9c0-.17.05-.33.07-.5a21.53,21.53,0,0,0,.08-2.91,16.53,16.53,0,0,1,.59-3.32c0-.13,0-.27.08-.4a8,8,0,0,0,0-1.82l0-.41q0-.4-.06-.81v-.41a18.56,18.56,0,0,0,.09-2.24c0-.15,0-.31,0-.46.12-1,0-2.09.87-2.7.39-.34.94,0,1.06.45a7.48,7.48,0,0,1-.1,2.41c0,.14,0,.28,0,.42a18.4,18.4,0,0,0,0,2.1,1.21,1.21,0,0,0,.15.38.87.87,0,0,0,.23.27c.24.14.39.09.5-.07a1.16,1.16,0,0,0,.06-.15,4.3,4.3,0,0,0,.21-1.18c0-.08,0-.16,0-.24.12-.85.36-1.68.43-2.54a1.57,1.57,0,0,0,0-.23c.05-.22.1-.44.13-.67l.06-.26.06-.25a4.54,4.54,0,0,0,.09-.51c.17-.78,0-1.59.41-2.31a1,1,0,0,1,1.37-.26.88.88,0,0,1,.22.21.75.75,0,0,1,.15.24,2.2,2.2,0,0,1,0,1.14c0,.1,0,.2-.07.3a2.86,2.86,0,0,1-.07.28c0,.14-.05.27-.08.4s-.05.26-.08.38,0,.26-.07.39,0,.29,0,.44a20.27,20.27,0,0,1-.42,2.65,2,2,0,0,0,0,.24,6.69,6.69,0,0,0,0,1.73c0,.17.27.13.31.08a6.38,6.38,0,0,0,.52-1.6l.06-.25c.19-.83.33-1.69.59-2.51,0-.14.08-.29.13-.44l.12-.42.08-.2c0-.12.07-.23.11-.33s.06-.22.1-.33c.45-1,.22-2.34,1.13-3.12a.75.75,0,0,1,.29-.09,1.28,1.28,0,0,1,1.13.59,1.17,1.17,0,0,1,.09.24,1.07,1.07,0,0,1,0,.25c-.15.65-.41,1.22-.52,1.87l-.06.2a11,11,0,0,0-.35,1.71l-.06.2c-.07.34-.16.69-.25,1.05l-.06.22c-.11.38-.22.8-.31,1.16a1.87,1.87,0,0,0-.07.22c-.13.37-.27.73-.37,1.09a2.25,2.25,0,0,0-.05.22,1,1,0,0,0,.17.69c.08.07.18.05.31,0l.17-.2a3,3,0,0,0,.49-.72c0-.09.08-.18.11-.27.34-.94.72-1.88,1.05-2.83l.12-.28c.24-.57.48-1.15.69-1.73l.18-.49c.21-.53.49-1,.91-1.13a.69.69,0,0,1,.35,0,1.07,1.07,0,0,1,.85,1.32,9.28,9.28,0,0,1-.68,1.87c0,.08-.07.17-.11.26a19.24,19.24,0,0,1-1.08,2.72,2.72,2.72,0,0,0-.11.25,20.72,20.72,0,0,0-.84,2.09c-.05.11-.09.23-.13.34-.13.35-.24.7-.34,1.05,0,.1,0,.19-.07.29a9.16,9.16,0,0,0-.17,1.17c0,.11,0,.22,0,.33-.06.33-.11.66-.17,1a1.59,1.59,0,0,0,.06.3.73.73,0,0,0,.15.25c.89,0,2.53-1.5,2.64-1.59a3.42,3.42,0,0,1,3.15-.86,2.18,2.18,0,0,1,.92.66c-.43.92-1.49,1.26-2.19,1.8-.25.2-.47.45-.73.63a7.54,7.54,0,0,0-1.32,1c-.39.41-.67.93-1.14,1.37a12.05,12.05,0,0,1-1.85,1.27l-.47.27c-.81.41-1.5.83-2.35,1.26a6.91,6.91,0,0,0-1.87,1.87c-.34.59-1.27,2.67-1.85,4a17.47,17.47,0,0,0,4.16.44c7.6,0,11.56-4.95,11.58-16.93C208.7,17.32,205.26,13.78,197.72,13.77Z" fill-rule="evenodd"/></g></g></svg>